# xmcd
# Track frame offsets:
# 150
# 11528
# 23845
# 36293
# 49110
# 66833
# 111800
# 124458
# 139190
#
# Disc length: 2121 seconds
# Revision: 0
# Processed by: cddbd v1.5.1PL2 Copyright (c) Steve Scherf et al.
# Submitted via: VisiTrax 2.9.5.180 - For more info visit www.synapsa.com
#
DISCID=7c084709
DTITLE=Connie Smith - Live in Branson, MO, USA
DYEAR=1993
DGENRE=Country
TTITLE0=I've got my baby on my mind
TTITLE1=Where is my castle
TTITLE2=Just one time
TTITLE3=Louisiana man
TTITLE4=You've got me right where you want me
TTITLE5=Medley
TTITLE6=Once a day
TTITLE7=Satisfied
TTITLE8=How great thou art
EXTD=
EXTT0=
EXTT1=
EXTT2=
EXTT3=
EXTT4=
EXTT5=
EXTT6=
EXTT7=
EXTT8=
PLAYORDER=
